<svg width="173" height="94" viewBox="0 0 173 94" fill="none" xmlns="http://www.w3.org/2000/svg">
<rect width="155" height="94" fill="black"/>
<rect y="17" width="155" height="60" fill="#FF8C4E"/>
<rect x="63" y="21" width="65" height="52" fill="black"/>
<rect x="69" y="40" width="104" height="14" fill="black"/>
<path d="M90 38.903L91.5 38.903L91.5 54.863L90 54.863L90 38.903ZM106.5 47.843L84 59.213L84 57.323L106.08 46.283L106.08 47.753L84 36.683L84 34.793L106.5 46.163L106.5 47.843Z" fill="#FF8C4E"/>
<circle cx="34.5" cy="46.5" r="12.5" fill="white"/>
<path d="M27 39.5083V43.9575H31.4491" stroke="#FF8C4E" stroke-width="2" stroke-miterlimit="10"/>
<path d="M42.0002 53.4914V49.0423H37.551" stroke="#FF8C4E" stroke-width="2" stroke-miterlimit="10"/>
<path d="M41.5659 49.0422C40.5189 52.0045 37.8208 53.9998 34.5 53.9998C30.2876 53.9998 27 50.7121 27 46.4998" stroke="#FF8C4E" stroke-width="2" stroke-miterlimit="10"/>
<path d="M27.4341 43.9576C28.4811 40.9953 31.1792 39 34.5001 39C38.7124 39 42 42.2876 42 46.4999" stroke="#FF8C4E" stroke-width="2" stroke-miterlimit="10"/>
</svg>
