<svg width="173" height="94" viewBox="0 0 173 94" fill="none" xmlns="http://www.w3.org/2000/svg">
<rect width="155" height="94" fill="black"/>
<rect y="17" width="155" height="60" fill="#5AD2CA"/>
<rect x="63" y="21" width="65" height="52" fill="black"/>
<rect x="69" y="40" width="104" height="14" fill="black"/>
<path d="M95.31 50.3571L95.88 50.6271C95.88 52.4671 95.6 53.9371 95.04 55.0371C94.5 56.1571 93.78 56.9671 92.88 57.4671C92 57.9871 91.03 58.2471 89.97 58.2471C88.79 58.2471 87.75 57.9571 86.85 57.3771C85.95 56.8171 85.25 55.9871 84.75 54.8871C84.25 53.7871 84 52.4371 84 50.8371L84 37.4571L95.55 39.2571L106.5 37.4571L106.5 50.3571C106.5 52.4371 106.01 54.0171 105.03 55.0971C104.07 56.1971 102.75 56.7471 101.07 56.7471C100.21 56.7471 99.36 56.5371 98.52 56.1171C97.68 55.6971 96.96 55.0171 96.36 54.0771C95.78 53.1571 95.43 51.9171 95.31 50.3571ZM84.75 39.2271L85.5 38.5971L85.5 51.0171C85.5 52.7371 85.88 54.0771 86.64 55.0371C87.4 56.0171 88.51 56.5071 89.97 56.5071C91.53 56.5071 92.72 55.9271 93.54 54.7671C94.38 53.6271 94.8 51.9271 94.8 49.6671L94.8 39.9471L96.3 39.9471L96.3 49.7571C96.3 51.2571 96.7 52.5071 97.5 53.5071C98.3 54.5071 99.49 55.0071 101.07 55.0071C102.21 55.0071 103.15 54.5971 103.89 53.7771C104.63 52.9771 105 51.7871 105 50.2071L105 38.5971L105.75 39.2271L95.55 40.9071L84.75 39.2271Z" fill="#5AD2CA"/>
<circle cx="34.5" cy="47.5" r="12" fill="white" stroke="#5AD2CA"/>
<path d="M27 40.5083V44.9575H31.4491" stroke="#5AD2CA" stroke-width="2" stroke-miterlimit="10"/>
<path d="M42.0002 54.4914V50.0423H37.551" stroke="#5AD2CA" stroke-width="2" stroke-miterlimit="10"/>
<path d="M41.5659 50.0422C40.5189 53.0045 37.8208 54.9998 34.5 54.9998C30.2876 54.9998 27 51.7121 27 47.4998" stroke="#5AD2CA" stroke-width="2" stroke-miterlimit="10"/>
<path d="M27.4341 44.9576C28.4811 41.9953 31.1792 40 34.5001 40C38.7124 40 42 43.2876 42 47.4999" stroke="#5AD2CA" stroke-width="2" stroke-miterlimit="10"/>
</svg>
