<svg width="383" height="89" viewBox="0 0 383 89" fill="none" xmlns="http://www.w3.org/2000/svg">
<rect width="383" height="89" fill="black"/>
<path d="M85.2842 47.09C85.0842 48.93 84.4342 50.56 83.3342 51.98C82.2542 53.38 80.8342 54.47 79.0742 55.25C77.3142 56.03 75.3042 56.42 73.0442 56.42C70.5242 56.42 68.3142 55.93 66.4142 54.95C64.5142 53.97 63.0342 52.61 61.9742 50.87C60.9142 49.11 60.3842 47.07 60.3842 44.75C60.3842 42.43 60.9142 40.4 61.9742 38.66C63.0342 36.9 64.5142 35.53 66.4142 34.55C68.3142 33.57 70.5242 33.08 73.0442 33.08C75.3042 33.08 77.3142 33.47 79.0742 34.25C80.8342 35.03 82.2542 36.12 83.3342 37.52C84.4342 38.92 85.0842 40.55 85.2842 42.41H81.2942C81.0742 41.21 80.5942 40.18 79.8542 39.32C79.1342 38.46 78.1942 37.8 77.0342 37.34C75.8742 36.86 74.5342 36.62 73.0142 36.62C71.2542 36.62 69.7242 36.95 68.4242 37.61C67.1442 38.27 66.1542 39.21 65.4542 40.43C64.7542 41.65 64.4042 43.09 64.4042 44.75C64.4042 46.41 64.7542 47.85 65.4542 49.07C66.1542 50.29 67.1442 51.23 68.4242 51.89C69.7242 52.55 71.2542 52.88 73.0142 52.88C74.5342 52.88 75.8742 52.65 77.0342 52.19C78.1942 51.73 79.1342 51.07 79.8542 50.21C80.5942 49.33 81.0742 48.29 81.2942 47.09H85.2842ZM91.6775 43.64H100.827C102.147 43.64 103.187 43.34 103.947 42.74C104.727 42.14 105.117 41.32 105.117 40.28C105.117 39.22 104.727 38.4 103.947 37.82C103.187 37.22 102.147 36.92 100.827 36.92H91.1075L92.8775 34.7V56H88.9175V33.5H101.187C102.767 33.5 104.147 33.79 105.327 34.37C106.527 34.93 107.457 35.72 108.117 36.74C108.797 37.74 109.137 38.92 109.137 40.28C109.137 41.6 108.797 42.77 108.117 43.79C107.457 44.79 106.527 45.58 105.327 46.16C104.147 46.72 102.767 47 101.187 47H91.6775V43.64ZM96.1175 45.47H100.767L109.707 56H104.967L96.1175 45.47ZM131.204 43.1V46.4H115.484V43.1H131.204ZM118.094 44.75L116.504 54.8L114.614 52.58H132.074V56H112.454L114.254 44.75L112.454 33.5H131.924V36.92H114.614L116.504 34.7L118.094 44.75ZM138.763 50.84V47.57H154.483V50.84H138.763ZM149.203 33.5L160.003 56H155.773L145.963 35H147.493L137.683 56H133.453L144.253 33.5H149.203ZM166.08 35.33H170.04V56H166.08V35.33ZM156.78 33.5H179.34V36.98H156.78V33.5ZM200.315 43.1V46.4H184.595V43.1H200.315ZM187.205 44.75L185.615 54.8L183.725 52.58H201.185V56H181.565L183.365 44.75L181.565 33.5H201.035V36.92H183.725L185.615 34.7L187.205 44.75ZM235.783 46.22C235.763 47.62 235.493 48.94 234.973 50.18C234.453 51.4 233.713 52.48 232.753 53.42C231.793 54.36 230.623 55.1 229.243 55.64C227.883 56.16 226.323 56.42 224.563 56.42C222.783 56.42 221.133 56.15 219.613 55.61C218.093 55.07 216.763 54.3 215.623 53.3C214.503 52.28 213.633 51.05 213.013 49.61C212.393 48.17 212.083 46.55 212.083 44.75C212.083 42.95 212.393 41.33 213.013 39.89C213.653 38.45 214.543 37.23 215.683 36.23C216.823 35.21 218.163 34.43 219.703 33.89C221.243 33.35 222.933 33.08 224.773 33.08C227.073 33.08 229.083 33.46 230.803 34.22C232.543 34.96 233.943 35.98 235.003 37.28C236.063 38.58 236.713 40.07 236.953 41.75H232.933C232.713 40.69 232.233 39.77 231.493 38.99C230.773 38.21 229.843 37.61 228.703 37.19C227.563 36.77 226.243 36.56 224.743 36.56C222.983 36.56 221.453 36.89 220.153 37.55C218.873 38.19 217.873 39.12 217.153 40.34C216.453 41.56 216.103 43.03 216.103 44.75C216.103 46.47 216.463 47.95 217.183 49.19C217.923 50.43 218.963 51.38 220.303 52.04C221.643 52.7 223.223 53.03 225.043 53.03C226.803 53.03 228.343 52.73 229.663 52.13C230.983 51.53 232.023 50.7 232.783 49.64C233.543 48.56 233.953 47.31 234.013 45.89L235.783 46.22ZM225.823 47.93V44.93H237.193V56H234.253L233.773 46.67L234.703 47.93H225.823ZM244.232 50.84V47.57H259.952V50.84H244.232ZM254.672 33.5L265.472 56H261.242L251.432 35H252.962L243.152 56H238.922L249.722 33.5H254.672ZM298.484 33.5V56H294.704V34.7L295.934 34.76L285.464 56H281.234L270.764 34.79L271.994 34.73V56H268.214V33.5H274.274L284.354 54.29H282.374L292.424 33.5H298.484ZM321.487 43.1V46.4H305.767V43.1H321.487ZM308.377 44.75L306.787 54.8L304.897 52.58H322.357V56H302.737L304.537 44.75L302.737 33.5H322.207V36.92H304.897L306.787 34.7L308.377 44.75Z" fill="white"/>
</svg>
