<svg width="173" height="94" viewBox="0 0 173 94" fill="none" xmlns="http://www.w3.org/2000/svg">
<rect width="155" height="94" fill="black"/>
<rect y="17" width="155" height="60" fill="#C062C9"/>
<rect x="63" y="21" width="65" height="52" fill="black"/>
<rect x="69" y="40" width="104" height="14" fill="black"/>
<path d="M92.4 59.536C90.68 59.336 89.16 58.716 87.84 57.676C86.52 56.656 85.49 55.306 84.75 53.626C84.01 51.966 83.64 50.076 83.64 47.956C83.64 45.516 84.13 43.376 85.11 41.536C86.09 39.696 87.45 38.266 89.19 37.246C90.95 36.226 92.97 35.716 95.25 35.716C97.55 35.716 99.57 36.226 101.31 37.246C103.05 38.266 104.41 39.696 105.39 41.536C106.37 43.376 106.86 45.516 106.86 47.956C106.86 50.076 106.49 51.966 105.75 53.626C105.01 55.306 103.98 56.656 102.66 57.676C101.36 58.716 99.84 59.336 98.1 59.536L98.1 57.796C99.56 57.556 100.83 56.996 101.91 56.116C102.99 55.236 103.82 54.096 104.4 52.696C105 51.296 105.3 49.696 105.3 47.896C105.3 45.796 104.88 43.956 104.04 42.376C103.22 40.816 102.06 39.606 100.56 38.746C99.06 37.886 97.29 37.456 95.25 37.456C93.23 37.456 91.46 37.886 89.94 38.746C88.44 39.606 87.27 40.816 86.43 42.376C85.61 43.956 85.2 45.796 85.2 47.896C85.2 49.696 85.49 51.296 86.07 52.696C86.67 54.096 87.51 55.236 88.59 56.116C89.67 56.996 90.94 57.556 92.4 57.796L92.4 59.536Z" fill="#C062C9"/>
<circle cx="34.5" cy="47.5" r="12" fill="white" stroke="#C062C9"/>
<path d="M27 40.5083V44.9575H31.4491" stroke="#C062C9" stroke-width="2" stroke-miterlimit="10"/>
<path d="M42.0002 54.4914V50.0423H37.551" stroke="#C062C9" stroke-width="2" stroke-miterlimit="10"/>
<path d="M41.5659 50.0422C40.5189 53.0045 37.8208 54.9998 34.5 54.9998C30.2876 54.9998 27 51.7121 27 47.4998" stroke="#C062C9" stroke-width="2" stroke-miterlimit="10"/>
<path d="M27.4341 44.9576C28.4811 41.9953 31.1792 40 34.5001 40C38.7124 40 42 43.2876 42 47.4999" stroke="#C062C9" stroke-width="2" stroke-miterlimit="10"/>
</svg>
