<svg width="173" height="94" viewBox="0 0 173 94" fill="none" xmlns="http://www.w3.org/2000/svg">
<rect width="155" height="94" fill="black"/>
<rect y="17" width="155" height="60" fill="#27E291"/>
<rect x="63" y="21" width="65" height="52" fill="black"/>
<rect x="69" y="40" width="104" height="14" fill="black"/>
<path d="M106.5 46.0215C106.5 48.4815 106.02 50.6415 105.06 52.5015C104.12 54.3615 102.8 55.8115 101.1 56.8515C99.42 57.8915 97.47 58.4115 95.25 58.4115C93.03 58.4115 91.07 57.8915 89.37 56.8515C87.69 55.8115 86.37 54.3615 85.41 52.5015C84.47 50.6415 84 48.4815 84 46.0215L84 36.9315L106.5 36.9315L106.5 46.0215ZM84.12 38.6115L85.47 37.2315L85.47 46.0215C85.47 48.1215 85.88 49.9715 86.7 51.5715C87.54 53.1715 88.69 54.4215 90.15 55.3215C91.63 56.2215 93.33 56.6715 95.25 56.6715C97.19 56.6715 98.89 56.2215 100.35 55.3215C101.81 54.4215 102.95 53.1715 103.77 51.5715C104.61 49.9715 105.03 48.1215 105.03 46.0215L105.03 37.2315L106.38 38.6115L84.12 38.6115Z" fill="#27E291"/>
</svg>
