<svg width="383" height="89" viewBox="0 0 383 89" fill="none" xmlns="http://www.w3.org/2000/svg">
<rect width="383" height="89" fill="black"/>
<path d="M87.2061 45.23H91.1061V46.22C91.1061 48.32 91.5961 49.96 92.5761 51.14C93.5561 52.3 95.1461 52.88 97.3461 52.88C99.5461 52.88 101.136 52.31 102.116 51.17C103.116 50.03 103.616 48.46 103.616 46.46V33.5H107.576V46.61C107.576 48.77 107.146 50.58 106.286 52.04C105.426 53.5 104.226 54.6 102.686 55.34C101.146 56.06 99.3661 56.42 97.3461 56.42C95.3461 56.42 93.5761 56.05 92.0361 55.31C90.5161 54.57 89.3261 53.46 88.4661 51.98C87.6261 50.5 87.2061 48.66 87.2061 46.46V45.23ZM124.055 56.42C121.495 56.42 119.245 55.93 117.305 54.95C115.365 53.97 113.855 52.61 112.775 50.87C111.695 49.11 111.155 47.07 111.155 44.75C111.155 42.43 111.695 40.4 112.775 38.66C113.855 36.9 115.365 35.53 117.305 34.55C119.245 33.57 121.495 33.08 124.055 33.08C126.615 33.08 128.865 33.57 130.805 34.55C132.745 35.53 134.255 36.9 135.335 38.66C136.415 40.4 136.955 42.43 136.955 44.75C136.955 47.07 136.415 49.11 135.335 50.87C134.255 52.61 132.745 53.97 130.805 54.95C128.865 55.93 126.615 56.42 124.055 56.42ZM124.055 52.88C125.875 52.88 127.445 52.55 128.765 51.89C130.085 51.23 131.105 50.29 131.825 49.07C132.565 47.85 132.935 46.41 132.935 44.75C132.935 43.09 132.565 41.65 131.825 40.43C131.105 39.21 130.085 38.27 128.765 37.61C127.445 36.95 125.875 36.62 124.055 36.62C122.255 36.62 120.685 36.95 119.345 37.61C118.025 38.27 116.995 39.21 116.255 40.43C115.535 41.65 115.175 43.09 115.175 44.75C115.175 46.41 115.535 47.85 116.255 49.07C116.995 50.29 118.025 51.23 119.345 51.89C120.685 52.55 122.255 52.88 124.055 52.88ZM140.802 33.5H144.762V56H140.802V33.5ZM170.646 53.6L169.026 53.78V33.5H172.866V56H167.826L152.046 35.72L153.636 35.54V56H149.796V33.5H154.956L170.646 53.6ZM208.362 46.22C208.342 47.62 208.072 48.94 207.552 50.18C207.032 51.4 206.292 52.48 205.332 53.42C204.372 54.36 203.202 55.1 201.822 55.64C200.462 56.16 198.902 56.42 197.142 56.42C195.362 56.42 193.712 56.15 192.192 55.61C190.672 55.07 189.342 54.3 188.202 53.3C187.082 52.28 186.212 51.05 185.592 49.61C184.972 48.17 184.662 46.55 184.662 44.75C184.662 42.95 184.972 41.33 185.592 39.89C186.232 38.45 187.122 37.23 188.262 36.23C189.402 35.21 190.742 34.43 192.282 33.89C193.822 33.35 195.512 33.08 197.352 33.08C199.652 33.08 201.662 33.46 203.382 34.22C205.122 34.96 206.522 35.98 207.582 37.28C208.642 38.58 209.292 40.07 209.532 41.75H205.512C205.292 40.69 204.812 39.77 204.072 38.99C203.352 38.21 202.422 37.61 201.282 37.19C200.142 36.77 198.822 36.56 197.322 36.56C195.562 36.56 194.032 36.89 192.732 37.55C191.452 38.19 190.452 39.12 189.732 40.34C189.032 41.56 188.682 43.03 188.682 44.75C188.682 46.47 189.042 47.95 189.762 49.19C190.502 50.43 191.542 51.38 192.882 52.04C194.222 52.7 195.802 53.03 197.622 53.03C199.382 53.03 200.922 52.73 202.242 52.13C203.562 51.53 204.602 50.7 205.362 49.64C206.122 48.56 206.532 47.31 206.592 45.89L208.362 46.22ZM198.402 47.93V44.93H209.772V56H206.832L206.352 46.67L207.282 47.93H198.402ZM216.81 50.84V47.57H232.53V50.84H216.81ZM227.25 33.5L238.05 56H233.82L224.01 35H225.54L215.73 56H211.5L222.3 33.5H227.25ZM271.062 33.5V56H267.282V34.7L268.512 34.76L258.042 56H253.812L243.342 34.79L244.572 34.73V56H240.792V33.5H246.852L256.932 54.29H254.952L265.002 33.5H271.062ZM294.065 43.1V46.4H278.345V43.1H294.065ZM280.955 44.75L279.365 54.8L277.475 52.58H294.935V56H275.315L277.115 44.75L275.315 33.5H294.785V36.92H277.475L279.365 34.7L280.955 44.75Z" fill="white"/>
</svg>
