<svg width="1031" height="331" viewBox="0 0 1031 331" fill="none" xmlns="http://www.w3.org/2000/svg">
<rect width="1031" height="331" fill="#FF8C4E"/>
<path d="M271.254 98C276.854 98 281.688 99 285.754 101C289.888 103 293.054 105.8 295.254 109.4C297.521 112.933 298.654 117.033 298.654 121.7C298.654 126.367 297.521 130.5 295.254 134.1C293.054 137.633 289.888 140.4 285.754 142.4C281.688 144.4 276.854 145.4 271.254 145.4H237.554V134H270.754C275.288 134 278.821 132.9 281.354 130.7C283.954 128.5 285.254 125.5 285.254 121.7C285.254 117.9 283.954 114.9 281.354 112.7C278.821 110.5 275.288 109.4 270.754 109.4H238.854L244.754 102.8V173H231.554V98H271.254ZM322.684 98V167.1L316.784 161.4H373.284V173H309.484V98H322.684ZM393.312 155.8V144.9H445.712V155.8H393.312ZM428.112 98L464.112 173H450.012L417.312 103H422.412L389.712 173H375.612L411.612 98H428.112ZM486.619 173V137.2H499.819V173H486.619ZM451.219 98H466.119L496.719 136.4H489.619L520.219 98H535.119L497.419 145.3L489.019 145.4L451.219 98ZM605.029 130V141H552.629V130H605.029ZM561.329 135.5L556.029 169L549.729 161.6H607.929V173H542.529L548.529 135.5L542.529 98H607.429V109.4H549.729L556.029 102L561.329 135.5ZM630.891 131.8H661.391C665.791 131.8 669.258 130.8 671.791 128.8C674.391 126.8 675.691 124.067 675.691 120.6C675.691 117.067 674.391 114.333 671.791 112.4C669.258 110.4 665.791 109.4 661.391 109.4H628.991L634.891 102V173H621.691V98H662.591C667.858 98 672.458 98.9667 676.391 100.9C680.391 102.767 683.491 105.4 685.691 108.8C687.958 112.133 689.091 116.067 689.091 120.6C689.091 125 687.958 128.9 685.691 132.3C683.491 135.633 680.391 138.267 676.391 140.2C672.458 142.067 667.858 143 662.591 143H630.891V131.8ZM645.691 137.9H661.191L690.991 173H675.191L645.691 137.9ZM735.304 155.8V144.9H787.704V155.8H735.304ZM770.104 98L806.104 173H792.004L759.304 103H764.404L731.704 173H717.604L753.604 98H770.104Z" fill="white"/>
<path d="M330.804 218.5L334.054 219.1L337.304 218.5V247H330.804V218.5ZM334.054 214.95C332.82 214.95 331.804 214.617 331.004 213.95C330.204 213.25 329.804 212.35 329.804 211.25C329.804 210.15 330.204 209.267 331.004 208.6C331.804 207.9 332.82 207.55 334.054 207.55C335.32 207.55 336.337 207.9 337.104 208.6C337.904 209.267 338.304 210.15 338.304 211.25C338.304 212.35 337.904 213.25 337.104 213.95C336.337 214.617 335.32 214.95 334.054 214.95ZM373.482 238.4C373.482 240.3 372.949 241.95 371.882 243.35C370.816 244.75 369.199 245.833 367.032 246.6C364.866 247.333 362.149 247.7 358.882 247.7C355.516 247.7 352.599 247.283 350.132 246.45C347.666 245.583 345.749 244.383 344.382 242.85C343.049 241.283 342.332 239.483 342.232 237.45H348.832C349.032 238.517 349.566 239.467 350.432 240.3C351.332 241.1 352.499 241.717 353.932 242.15C355.399 242.583 357.066 242.8 358.932 242.8C361.632 242.8 363.666 242.483 365.032 241.85C366.399 241.183 367.082 240.183 367.082 238.85C367.082 237.95 366.616 237.267 365.682 236.8C364.782 236.333 363.066 235.983 360.532 235.75L354.982 235.25C351.982 234.983 349.616 234.45 347.882 233.65C346.149 232.817 344.916 231.817 344.182 230.65C343.449 229.45 343.082 228.183 343.082 226.85C343.082 224.917 343.682 223.3 344.882 222C346.082 220.7 347.749 219.717 349.882 219.05C352.016 218.35 354.499 218 357.332 218C360.266 218 362.882 218.417 365.182 219.25C367.482 220.05 369.316 221.183 370.682 222.65C372.049 224.083 372.816 225.75 372.982 227.65H366.382C366.249 226.883 365.849 226.15 365.182 225.45C364.549 224.717 363.566 224.117 362.232 223.65C360.932 223.15 359.182 222.9 356.982 222.9C354.649 222.9 352.816 223.2 351.482 223.8C350.182 224.4 349.532 225.283 349.532 226.45C349.532 227.183 349.932 227.817 350.732 228.35C351.532 228.85 353.016 229.2 355.182 229.4L362.332 230.05C365.199 230.317 367.432 230.833 369.032 231.6C370.666 232.333 371.816 233.283 372.482 234.45C373.149 235.617 373.482 236.933 373.482 238.4ZM387.613 223.7V220.75L393.663 219.2L396.363 211.3H400.163V218.7H413.313V223.7H400.163V235.95C400.163 238.317 400.663 239.983 401.663 240.95C402.697 241.883 404.363 242.35 406.663 242.35C408.13 242.35 409.43 242.2 410.563 241.9C411.697 241.567 412.78 241.1 413.813 240.5V245.85C412.947 246.283 411.713 246.7 410.113 247.1C408.547 247.5 406.93 247.7 405.263 247.7C402.497 247.7 400.263 247.25 398.563 246.35C396.863 245.417 395.613 244.15 394.813 242.55C394.047 240.917 393.663 239.05 393.663 236.95V223.7H387.613ZM418.548 208.5H425.048V247H418.548V208.5ZM436.298 218C438.964 218 441.231 218.533 443.098 219.6C444.964 220.667 446.381 222.2 447.348 224.2C448.348 226.167 448.848 228.55 448.848 231.35V247H442.348V232.4C442.348 229.433 441.648 227.2 440.248 225.7C438.881 224.167 436.864 223.4 434.198 223.4C432.364 223.4 430.748 223.817 429.348 224.65C427.981 225.45 426.914 226.583 426.148 228.05C425.414 229.517 425.048 231.233 425.048 233.2L422.748 231.95C423.048 229.017 423.814 226.517 425.048 224.45C426.281 222.383 427.864 220.8 429.798 219.7C431.731 218.567 433.898 218 436.298 218ZM470.814 247.7C467.514 247.7 464.581 247.083 462.014 245.85C459.447 244.583 457.431 242.833 455.964 240.6C454.497 238.367 453.764 235.767 453.764 232.8C453.764 229.867 454.447 227.3 455.814 225.1C457.214 222.867 459.131 221.133 461.564 219.9C464.031 218.633 466.847 218 470.014 218C473.181 218 475.914 218.717 478.214 220.15C480.547 221.55 482.347 223.533 483.614 226.1C484.881 228.667 485.514 231.683 485.514 235.15H458.864V230.2H482.264L479.014 232.05C478.914 230.183 478.464 228.583 477.664 227.25C476.897 225.917 475.847 224.9 474.514 224.2C473.214 223.467 471.664 223.1 469.864 223.1C467.964 223.1 466.297 223.483 464.864 224.25C463.464 225.017 462.364 226.1 461.564 227.5C460.764 228.867 460.364 230.5 460.364 232.4C460.364 234.5 460.831 236.317 461.764 237.85C462.731 239.383 464.081 240.567 465.814 241.4C467.581 242.2 469.664 242.6 472.064 242.6C474.231 242.6 476.447 242.267 478.714 241.6C480.981 240.9 482.981 239.933 484.714 238.7V243.4C482.981 244.733 480.864 245.783 478.364 246.55C475.897 247.317 473.381 247.7 470.814 247.7ZM539.629 243.65H537.329L547.079 218.7H553.579L542.179 247H535.529L525.529 221.65H528.079L517.829 247H511.179L499.829 218.7H506.429L516.229 243.65H513.779L523.579 218.7H530.079L539.629 243.65ZM557.61 218.5L560.86 219.1L564.11 218.5V247H557.61V218.5ZM560.86 214.95C559.627 214.95 558.61 214.617 557.81 213.95C557.01 213.25 556.61 212.35 556.61 211.25C556.61 210.15 557.01 209.267 557.81 208.6C558.61 207.9 559.627 207.55 560.86 207.55C562.127 207.55 563.143 207.9 563.91 208.6C564.71 209.267 565.11 210.15 565.11 211.25C565.11 212.35 564.71 213.25 563.91 213.95C563.143 214.617 562.127 214.95 560.86 214.95ZM569.639 218.7H576.139L577.839 228.9V247H571.339V227.95L569.639 218.7ZM589.089 218C591.756 218 594.022 218.533 595.889 219.6C597.756 220.667 599.172 222.2 600.139 224.2C601.139 226.167 601.639 228.55 601.639 231.35V247H595.139V232.4C595.139 229.433 594.439 227.2 593.039 225.7C591.672 224.167 589.656 223.4 586.989 223.4C585.156 223.4 583.539 223.817 582.139 224.65C580.772 225.45 579.706 226.583 578.939 228.05C578.206 229.517 577.839 231.233 577.839 233.2L575.539 231.95C575.839 229.017 576.606 226.517 577.839 224.45C579.072 222.383 580.656 220.8 582.589 219.7C584.522 218.567 586.689 218 589.089 218ZM606.797 218.7H613.297L614.997 228.9V247H608.497V227.95L606.797 218.7ZM626.247 218C628.914 218 631.181 218.533 633.047 219.6C634.914 220.667 636.331 222.2 637.297 224.2C638.297 226.167 638.797 228.55 638.797 231.35V247H632.297V232.4C632.297 229.433 631.597 227.2 630.197 225.7C628.831 224.167 626.814 223.4 624.147 223.4C622.314 223.4 620.697 223.817 619.297 224.65C617.931 225.45 616.864 226.583 616.097 228.05C615.364 229.517 614.997 231.233 614.997 233.2L612.697 231.95C612.997 229.017 613.764 226.517 614.997 224.45C616.231 222.383 617.814 220.8 619.747 219.7C621.681 218.567 623.847 218 626.247 218ZM660.755 247.7C657.455 247.7 654.522 247.083 651.955 245.85C649.389 244.583 647.372 242.833 645.905 240.6C644.439 238.367 643.705 235.767 643.705 232.8C643.705 229.867 644.389 227.3 645.755 225.1C647.155 222.867 649.072 221.133 651.505 219.9C653.972 218.633 656.789 218 659.955 218C663.122 218 665.855 218.717 668.155 220.15C670.489 221.55 672.289 223.533 673.555 226.1C674.822 228.667 675.455 231.683 675.455 235.15H648.805V230.2H672.205L668.955 232.05C668.855 230.183 668.405 228.583 667.605 227.25C666.839 225.917 665.789 224.9 664.455 224.2C663.155 223.467 661.605 223.1 659.805 223.1C657.905 223.1 656.239 223.483 654.805 224.25C653.405 225.017 652.305 226.1 651.505 227.5C650.705 228.867 650.305 230.5 650.305 232.4C650.305 234.5 650.772 236.317 651.705 237.85C652.672 239.383 654.022 240.567 655.755 241.4C657.522 242.2 659.605 242.6 662.005 242.6C664.172 242.6 666.389 242.267 668.655 241.6C670.922 240.9 672.922 239.933 674.655 238.7V243.4C672.922 244.733 670.805 245.783 668.305 246.55C665.839 247.317 663.322 247.7 660.755 247.7ZM679.454 218.7H685.954L687.654 229V247H681.154V227.75L679.454 218.7ZM702.004 218.5V224.2C701.27 224 700.47 223.85 699.604 223.75C698.737 223.65 697.92 223.6 697.154 223.6C695.32 223.6 693.687 224 692.254 224.8C690.82 225.6 689.687 226.8 688.854 228.4C688.054 229.967 687.654 231.9 687.654 234.2L686.154 232.35C686.287 230.35 686.62 228.483 687.154 226.75C687.72 224.983 688.487 223.45 689.454 222.15C690.454 220.85 691.67 219.833 693.104 219.1C694.537 218.367 696.204 218 698.104 218C698.77 218 699.454 218.05 700.154 218.15C700.854 218.217 701.47 218.333 702.004 218.5Z" fill="white"/>
</svg>
