<svg width="1031" height="331" viewBox="0 0 1031 331" fill="none" xmlns="http://www.w3.org/2000/svg">
<rect width="1031" height="331" fill="#FF8C4E"/>
<path d="M272.438 98C278.038 98 282.871 99 286.938 101C291.071 103 294.238 105.8 296.438 109.4C298.705 112.933 299.838 117.033 299.838 121.7C299.838 126.367 298.705 130.5 296.438 134.1C294.238 137.633 291.071 140.4 286.938 142.4C282.871 144.4 278.038 145.4 272.438 145.4H238.738V134H271.938C276.471 134 280.005 132.9 282.538 130.7C285.138 128.5 286.438 125.5 286.438 121.7C286.438 117.9 285.138 114.9 282.538 112.7C280.005 110.5 276.471 109.4 271.938 109.4H240.038L245.938 102.8V173H232.738V98H272.438ZM323.868 98V167.1L317.968 161.4H374.468V173H310.668V98H323.868ZM394.496 155.8V144.9H446.896V155.8H394.496ZM429.296 98L465.296 173H451.196L418.496 103H423.596L390.896 173H376.796L412.796 98H429.296ZM487.803 173V137.2H501.003V173H487.803ZM452.403 98H467.303L497.903 136.4H490.803L521.403 98H536.303L498.603 145.3L490.203 145.4L452.403 98ZM606.212 130V141H553.812V130H606.212ZM562.512 135.5L557.212 169L550.912 161.6H609.112V173H543.712L549.712 135.5L543.712 98H608.612V109.4H550.912L557.212 102L562.512 135.5ZM632.075 131.8H662.575C666.975 131.8 670.441 130.8 672.975 128.8C675.575 126.8 676.875 124.067 676.875 120.6C676.875 117.067 675.575 114.333 672.975 112.4C670.441 110.4 666.975 109.4 662.575 109.4H630.175L636.075 102V173H622.875V98H663.775C669.041 98 673.641 98.9667 677.575 100.9C681.575 102.767 684.675 105.4 686.875 108.8C689.141 112.133 690.275 116.067 690.275 120.6C690.275 125 689.141 128.9 686.875 132.3C684.675 135.633 681.575 138.267 677.575 140.2C673.641 142.067 669.041 143 663.775 143H632.075V131.8ZM646.875 137.9H662.375L692.175 173H676.375L646.875 137.9ZM775.894 135.8L777.194 132.9C783.127 132.967 787.961 133.867 791.694 135.6C795.494 137.333 798.261 139.667 799.994 142.6C801.794 145.533 802.694 148.833 802.694 152.5C802.694 156.5 801.727 160.033 799.794 163.1C797.927 166.167 795.161 168.6 791.494 170.4C787.827 172.133 783.261 173 777.794 173H727.794L733.694 134.5L727.794 98H775.994C782.927 98 788.261 99.6333 791.994 102.9C795.794 106.1 797.694 110.533 797.694 116.2C797.694 119.2 796.961 122.133 795.494 125C794.094 127.8 791.794 130.2 788.594 132.2C785.461 134.133 781.227 135.333 775.894 135.8ZM741.094 169.3L735.994 162.4H776.294C780.427 162.4 783.627 161.467 785.894 159.6C788.227 157.667 789.394 154.933 789.394 151.4C789.394 147.667 788.027 144.767 785.294 142.7C782.627 140.633 778.661 139.6 773.394 139.6H740.894V129.4H772.094C775.627 129.4 778.561 128.433 780.894 126.5C783.227 124.5 784.394 121.667 784.394 118C784.394 115.267 783.427 113.033 781.494 111.3C779.561 109.5 776.761 108.6 773.094 108.6H735.994L741.094 101.7L746.394 134.5L741.094 169.3Z" fill="white"/>
<path d="M330.804 218.5L334.054 219.1L337.304 218.5V247H330.804V218.5ZM334.054 214.95C332.82 214.95 331.804 214.617 331.004 213.95C330.204 213.25 329.804 212.35 329.804 211.25C329.804 210.15 330.204 209.267 331.004 208.6C331.804 207.9 332.82 207.55 334.054 207.55C335.32 207.55 336.337 207.9 337.104 208.6C337.904 209.267 338.304 210.15 338.304 211.25C338.304 212.35 337.904 213.25 337.104 213.95C336.337 214.617 335.32 214.95 334.054 214.95ZM373.482 238.4C373.482 240.3 372.949 241.95 371.882 243.35C370.816 244.75 369.199 245.833 367.032 246.6C364.866 247.333 362.149 247.7 358.882 247.7C355.516 247.7 352.599 247.283 350.132 246.45C347.666 245.583 345.749 244.383 344.382 242.85C343.049 241.283 342.332 239.483 342.232 237.45H348.832C349.032 238.517 349.566 239.467 350.432 240.3C351.332 241.1 352.499 241.717 353.932 242.15C355.399 242.583 357.066 242.8 358.932 242.8C361.632 242.8 363.666 242.483 365.032 241.85C366.399 241.183 367.082 240.183 367.082 238.85C367.082 237.95 366.616 237.267 365.682 236.8C364.782 236.333 363.066 235.983 360.532 235.75L354.982 235.25C351.982 234.983 349.616 234.45 347.882 233.65C346.149 232.817 344.916 231.817 344.182 230.65C343.449 229.45 343.082 228.183 343.082 226.85C343.082 224.917 343.682 223.3 344.882 222C346.082 220.7 347.749 219.717 349.882 219.05C352.016 218.35 354.499 218 357.332 218C360.266 218 362.882 218.417 365.182 219.25C367.482 220.05 369.316 221.183 370.682 222.65C372.049 224.083 372.816 225.75 372.982 227.65H366.382C366.249 226.883 365.849 226.15 365.182 225.45C364.549 224.717 363.566 224.117 362.232 223.65C360.932 223.15 359.182 222.9 356.982 222.9C354.649 222.9 352.816 223.2 351.482 223.8C350.182 224.4 349.532 225.283 349.532 226.45C349.532 227.183 349.932 227.817 350.732 228.35C351.532 228.85 353.016 229.2 355.182 229.4L362.332 230.05C365.199 230.317 367.432 230.833 369.032 231.6C370.666 232.333 371.816 233.283 372.482 234.45C373.149 235.617 373.482 236.933 373.482 238.4ZM387.613 223.7V220.75L393.663 219.2L396.363 211.3H400.163V218.7H413.313V223.7H400.163V235.95C400.163 238.317 400.663 239.983 401.663 240.95C402.697 241.883 404.363 242.35 406.663 242.35C408.13 242.35 409.43 242.2 410.563 241.9C411.697 241.567 412.78 241.1 413.813 240.5V245.85C412.947 246.283 411.713 246.7 410.113 247.1C408.547 247.5 406.93 247.7 405.263 247.7C402.497 247.7 400.263 247.25 398.563 246.35C396.863 245.417 395.613 244.15 394.813 242.55C394.047 240.917 393.663 239.05 393.663 236.95V223.7H387.613ZM418.548 208.5H425.048V247H418.548V208.5ZM436.298 218C438.964 218 441.231 218.533 443.098 219.6C444.964 220.667 446.381 222.2 447.348 224.2C448.348 226.167 448.848 228.55 448.848 231.35V247H442.348V232.4C442.348 229.433 441.648 227.2 440.248 225.7C438.881 224.167 436.864 223.4 434.198 223.4C432.364 223.4 430.748 223.817 429.348 224.65C427.981 225.45 426.914 226.583 426.148 228.05C425.414 229.517 425.048 231.233 425.048 233.2L422.748 231.95C423.048 229.017 423.814 226.517 425.048 224.45C426.281 222.383 427.864 220.8 429.798 219.7C431.731 218.567 433.898 218 436.298 218ZM470.814 247.7C467.514 247.7 464.581 247.083 462.014 245.85C459.447 244.583 457.431 242.833 455.964 240.6C454.497 238.367 453.764 235.767 453.764 232.8C453.764 229.867 454.447 227.3 455.814 225.1C457.214 222.867 459.131 221.133 461.564 219.9C464.031 218.633 466.847 218 470.014 218C473.181 218 475.914 218.717 478.214 220.15C480.547 221.55 482.347 223.533 483.614 226.1C484.881 228.667 485.514 231.683 485.514 235.15H458.864V230.2H482.264L479.014 232.05C478.914 230.183 478.464 228.583 477.664 227.25C476.897 225.917 475.847 224.9 474.514 224.2C473.214 223.467 471.664 223.1 469.864 223.1C467.964 223.1 466.297 223.483 464.864 224.25C463.464 225.017 462.364 226.1 461.564 227.5C460.764 228.867 460.364 230.5 460.364 232.4C460.364 234.5 460.831 236.317 461.764 237.85C462.731 239.383 464.081 240.567 465.814 241.4C467.581 242.2 469.664 242.6 472.064 242.6C474.231 242.6 476.447 242.267 478.714 241.6C480.981 240.9 482.981 239.933 484.714 238.7V243.4C482.981 244.733 480.864 245.783 478.364 246.55C475.897 247.317 473.381 247.7 470.814 247.7ZM539.629 243.65H537.329L547.079 218.7H553.579L542.179 247H535.529L525.529 221.65H528.079L517.829 247H511.179L499.829 218.7H506.429L516.229 243.65H513.779L523.579 218.7H530.079L539.629 243.65ZM557.61 218.5L560.86 219.1L564.11 218.5V247H557.61V218.5ZM560.86 214.95C559.627 214.95 558.61 214.617 557.81 213.95C557.01 213.25 556.61 212.35 556.61 211.25C556.61 210.15 557.01 209.267 557.81 208.6C558.61 207.9 559.627 207.55 560.86 207.55C562.127 207.55 563.143 207.9 563.91 208.6C564.71 209.267 565.11 210.15 565.11 211.25C565.11 212.35 564.71 213.25 563.91 213.95C563.143 214.617 562.127 214.95 560.86 214.95ZM569.639 218.7H576.139L577.839 228.9V247H571.339V227.95L569.639 218.7ZM589.089 218C591.756 218 594.022 218.533 595.889 219.6C597.756 220.667 599.172 222.2 600.139 224.2C601.139 226.167 601.639 228.55 601.639 231.35V247H595.139V232.4C595.139 229.433 594.439 227.2 593.039 225.7C591.672 224.167 589.656 223.4 586.989 223.4C585.156 223.4 583.539 223.817 582.139 224.65C580.772 225.45 579.706 226.583 578.939 228.05C578.206 229.517 577.839 231.233 577.839 233.2L575.539 231.95C575.839 229.017 576.606 226.517 577.839 224.45C579.072 222.383 580.656 220.8 582.589 219.7C584.522 218.567 586.689 218 589.089 218ZM606.797 218.7H613.297L614.997 228.9V247H608.497V227.95L606.797 218.7ZM626.247 218C628.914 218 631.181 218.533 633.047 219.6C634.914 220.667 636.331 222.2 637.297 224.2C638.297 226.167 638.797 228.55 638.797 231.35V247H632.297V232.4C632.297 229.433 631.597 227.2 630.197 225.7C628.831 224.167 626.814 223.4 624.147 223.4C622.314 223.4 620.697 223.817 619.297 224.65C617.931 225.45 616.864 226.583 616.097 228.05C615.364 229.517 614.997 231.233 614.997 233.2L612.697 231.95C612.997 229.017 613.764 226.517 614.997 224.45C616.231 222.383 617.814 220.8 619.747 219.7C621.681 218.567 623.847 218 626.247 218ZM660.755 247.7C657.455 247.7 654.522 247.083 651.955 245.85C649.389 244.583 647.372 242.833 645.905 240.6C644.439 238.367 643.705 235.767 643.705 232.8C643.705 229.867 644.389 227.3 645.755 225.1C647.155 222.867 649.072 221.133 651.505 219.9C653.972 218.633 656.789 218 659.955 218C663.122 218 665.855 218.717 668.155 220.15C670.489 221.55 672.289 223.533 673.555 226.1C674.822 228.667 675.455 231.683 675.455 235.15H648.805V230.2H672.205L668.955 232.05C668.855 230.183 668.405 228.583 667.605 227.25C666.839 225.917 665.789 224.9 664.455 224.2C663.155 223.467 661.605 223.1 659.805 223.1C657.905 223.1 656.239 223.483 654.805 224.25C653.405 225.017 652.305 226.1 651.505 227.5C650.705 228.867 650.305 230.5 650.305 232.4C650.305 234.5 650.772 236.317 651.705 237.85C652.672 239.383 654.022 240.567 655.755 241.4C657.522 242.2 659.605 242.6 662.005 242.6C664.172 242.6 666.389 242.267 668.655 241.6C670.922 240.9 672.922 239.933 674.655 238.7V243.4C672.922 244.733 670.805 245.783 668.305 246.55C665.839 247.317 663.322 247.7 660.755 247.7ZM679.454 218.7H685.954L687.654 229V247H681.154V227.75L679.454 218.7ZM702.004 218.5V224.2C701.27 224 700.47 223.85 699.604 223.75C698.737 223.65 697.92 223.6 697.154 223.6C695.32 223.6 693.687 224 692.254 224.8C690.82 225.6 689.687 226.8 688.854 228.4C688.054 229.967 687.654 231.9 687.654 234.2L686.154 232.35C686.287 230.35 686.62 228.483 687.154 226.75C687.72 224.983 688.487 223.45 689.454 222.15C690.454 220.85 691.67 219.833 693.104 219.1C694.537 218.367 696.204 218 698.104 218C698.77 218 699.454 218.05 700.154 218.15C700.854 218.217 701.47 218.333 702.004 218.5Z" fill="white"/>
</svg>
