<svg width="684" height="100" viewBox="0 0 684 100" fill="none" xmlns="http://www.w3.org/2000/svg">
<path d="M4.37114e-06 6.10352e-05L684 2.29799e-05C684 55.2285 639.228 100 584 100L100 100C44.7715 100 7.44385e-06 55.2285 4.37114e-06 6.10352e-05Z" fill="black"/>
<path d="M242.24 37.0001C244.48 37.0001 246.413 37.4001 248.04 38.2001C249.693 39.0001 250.96 40.1201 251.84 41.5601C252.747 42.9734 253.2 44.6134 253.2 46.4801C253.2 48.3467 252.747 50.0001 251.84 51.4401C250.96 52.8534 249.693 53.9601 248.04 54.7601C246.413 55.5601 244.48 55.9601 242.24 55.9601L228.76 55.9601L228.76 51.4001L242.04 51.4001C243.853 51.4001 245.267 50.9601 246.28 50.0801C247.32 49.2001 247.84 48.0001 247.84 46.4801C247.84 44.9601 247.32 43.7601 246.28 42.8801C245.267 42.0001 243.853 41.5601 242.04 41.5601L229.28 41.5601L231.64 38.9201L231.64 67.0001L226.36 67.0001L226.36 37.0001L242.24 37.0001ZM262.812 37.0001L262.812 64.6401L260.452 62.3601L283.052 62.3601L283.052 67.0001L257.532 67.0001L257.532 37.0001L262.812 37.0001ZM291.063 60.1201L291.063 55.7601L312.023 55.7601L312.023 60.1201L291.063 60.1201ZM304.983 37.0001L319.383 67.0001L313.743 67.0001L300.663 39.0001L302.703 39.0001L289.623 67.0001L283.983 67.0001L298.383 37.0001L304.983 37.0001ZM328.386 67.0001L328.386 52.6801L333.666 52.6801L333.666 67.0001L328.386 67.0001ZM314.226 37.0001L320.186 37.0001L332.426 52.3601L329.586 52.3601L341.826 37.0001L347.786 37.0001L332.706 55.9201L329.346 55.9601L314.226 37.0001ZM375.75 49.8001L375.75 54.2001L354.79 54.2001L354.79 49.8001L375.75 49.8001ZM358.27 52.0001L356.15 65.4001L353.63 62.4401L376.91 62.4401L376.91 67.0001L350.75 67.0001L353.15 52.0001L350.75 37.0001L376.71 37.0001L376.71 41.5601L353.63 41.5601L356.15 38.6001L358.27 52.0001ZM386.095 50.5201L398.295 50.5201C400.055 50.52 401.441 50.12 402.455 49.32C403.495 48.52 404.015 47.4267 404.015 46.04C404.015 44.6267 403.495 43.5334 402.455 42.7601C401.441 41.9601 400.055 41.56 398.295 41.56L385.335 41.5601L387.695 38.6001L387.695 67.0001L382.415 67.0001L382.415 37L398.775 37C400.881 37 402.721 37.3867 404.295 38.1601C405.895 38.9067 407.135 39.9601 408.015 41.32C408.921 42.6534 409.375 44.2267 409.375 46.04C409.375 47.8 408.921 49.36 408.015 50.7201C407.135 52.0534 405.895 53.1067 404.295 53.8801C402.721 54.6267 400.881 55.0001 398.775 55.0001L386.095 55.0001L386.095 50.5201ZM392.015 52.9601L398.215 52.9601L410.135 67.0001L403.815 67.0001L392.015 52.9601ZM439.823 37C443.369 37 446.476 37.6267 449.143 38.88C451.836 40.1067 453.916 41.8534 455.383 44.12C456.876 46.36 457.623 48.9867 457.623 52C457.623 55.0134 456.876 57.6534 455.383 59.92C453.916 62.16 451.836 63.9067 449.143 65.16C446.476 66.3867 443.369 67 439.823 67L424.863 67L424.863 37L439.823 37ZM433.103 63.52L429.143 59.64L440.463 59.64C442.249 59.64 443.796 59.3334 445.103 58.72C446.436 58.08 447.463 57.1867 448.183 56.04C448.903 54.8934 449.263 53.5467 449.263 52C449.263 50.4267 448.903 49.08 448.183 47.96C447.463 46.8134 446.436 45.9334 445.103 45.32C443.796 44.68 442.249 44.36 440.463 44.36L429.143 44.36L433.103 40.48L433.103 63.52Z" fill="white"/>
</svg>
