<svg width="684" height="100" viewBox="0 0 684 100" fill="none" xmlns="http://www.w3.org/2000/svg">
<path d="M4.37114e-06 9.85631e-05L684 6.05079e-05C684 55.2285 639.228 100 584 100L100 100C44.7715 100 7.44385e-06 55.2286 4.37114e-06 9.85631e-05Z" fill="black"/>
<path d="M242.24 37C244.48 37 246.413 37.4 248.04 38.2C249.693 39 250.96 40.12 251.84 41.56C252.747 42.9734 253.2 44.6134 253.2 46.48C253.2 48.3467 252.747 50 251.84 51.44C250.96 52.8534 249.693 53.96 248.04 54.76C246.413 55.56 244.48 55.96 242.24 55.96L228.76 55.96L228.76 51.4L242.04 51.4C243.853 51.4 245.267 50.96 246.28 50.08C247.32 49.2 247.84 48 247.84 46.48C247.84 44.96 247.32 43.76 246.28 42.88C245.267 42 243.853 41.56 242.04 41.56L229.28 41.56L231.64 38.92L231.64 67L226.36 67L226.36 37L242.24 37ZM262.812 37L262.812 64.64L260.452 62.36L283.052 62.36L283.052 67L257.532 67L257.532 37L262.812 37ZM291.063 60.12L291.063 55.76L312.023 55.76L312.023 60.12L291.063 60.12ZM304.983 37L319.383 67L313.743 67L300.663 39L302.703 39L289.623 67L283.983 67L298.383 37L304.983 37ZM328.386 67L328.386 52.68L333.666 52.68L333.666 67L328.386 67ZM314.226 37L320.186 37L332.426 52.36L329.586 52.36L341.826 37L347.786 37L332.706 55.92L329.346 55.96L314.226 37ZM375.75 49.8L375.75 54.2L354.79 54.2L354.79 49.8L375.75 49.8ZM358.27 52L356.15 65.4L353.63 62.44L376.91 62.44L376.91 67L350.75 67L353.15 52L350.75 37L376.71 37L376.71 41.56L353.63 41.56L356.15 38.6L358.27 52ZM386.095 50.52L398.295 50.52C400.055 50.52 401.441 50.12 402.455 49.32C403.495 48.52 404.015 47.4267 404.015 46.04C404.015 44.6267 403.495 43.5334 402.455 42.76C401.441 41.96 400.055 41.56 398.295 41.56L385.335 41.56L387.695 38.6L387.695 67L382.415 67L382.415 37L398.775 37C400.881 37 402.721 37.3867 404.295 38.16C405.895 38.9067 407.135 39.96 408.015 41.32C408.921 42.6534 409.375 44.2267 409.375 46.04C409.375 47.8 408.921 49.36 408.015 50.72C407.135 52.0534 405.895 53.1067 404.295 53.88C402.721 54.6267 400.881 55 398.775 55L386.095 55L386.095 50.52ZM392.015 52.96L398.215 52.96L410.135 67L403.815 67L392.015 52.96ZM458.183 54.44C457.889 57.08 456.983 59.4 455.463 61.4C453.943 63.3734 451.943 64.9067 449.463 66C447.009 67.0934 444.183 67.64 440.983 67.64C437.489 67.64 434.436 66.9867 431.823 65.68C429.209 64.3734 427.169 62.5467 425.703 60.2C424.263 57.8534 423.543 55.12 423.543 52C423.543 48.88 424.263 46.1467 425.703 43.8C427.169 41.4534 429.209 39.6267 431.823 38.32C434.436 37.0134 437.489 36.36 440.983 36.36C444.183 36.36 447.009 36.9067 449.463 38C451.943 39.0934 453.943 40.64 455.463 42.64C456.983 44.6134 457.889 46.92 458.183 49.56L449.863 49.56C449.596 48.28 449.076 47.2 448.303 46.32C447.529 45.4134 446.516 44.72 445.263 44.24C444.036 43.76 442.609 43.52 440.983 43.52C439.116 43.52 437.503 43.8667 436.143 44.56C434.783 45.2267 433.743 46.2 433.023 47.48C432.303 48.7334 431.943 50.24 431.943 52C431.943 53.76 432.303 55.28 433.023 56.56C433.743 57.8134 434.783 58.7867 436.143 59.48C437.503 60.1467 439.116 60.48 440.983 60.48C442.609 60.48 444.036 60.2534 445.263 59.8C446.516 59.3467 447.529 58.6667 448.303 57.76C449.076 56.8534 449.596 55.7467 449.863 54.44L458.183 54.44Z" fill="white"/>
</svg>
