<svg width="684" height="100" viewBox="0 0 684 100" fill="none" xmlns="http://www.w3.org/2000/svg">
<path d="M4.37114e-06 3.7528e-05L684 -5.27225e-07V-5.27225e-07C684 55.2285 639.228 100 584 100L100 100C44.7715 100 7.44385e-06 55.2285 4.37114e-06 3.7528e-05V3.7528e-05Z" fill="black"/>
<path d="M242.24 37C244.48 37 246.413 37.4 248.04 38.2C249.693 39 250.96 40.12 251.84 41.56C252.747 42.9734 253.2 44.6134 253.2 46.48C253.2 48.3467 252.747 50 251.84 51.44C250.96 52.8534 249.693 53.96 248.04 54.76C246.413 55.56 244.48 55.96 242.24 55.96L228.76 55.96L228.76 51.4L242.04 51.4C243.853 51.4 245.267 50.96 246.28 50.08C247.32 49.2 247.84 48 247.84 46.48C247.84 44.96 247.32 43.76 246.28 42.88C245.267 42 243.853 41.56 242.04 41.56L229.28 41.56L231.64 38.92L231.64 67L226.36 67L226.36 37L242.24 37ZM262.812 37L262.812 64.64L260.452 62.36L283.052 62.36L283.052 67L257.532 67L257.532 37L262.812 37ZM291.063 60.12L291.063 55.76L312.023 55.76L312.023 60.12L291.063 60.12ZM304.983 37L319.383 67L313.743 67L300.663 39L302.703 39L289.623 67L283.983 67L298.383 37L304.983 37ZM328.386 67L328.386 52.68L333.666 52.68L333.666 67L328.386 67ZM314.226 37L320.186 37L332.426 52.36L329.586 52.36L341.826 37L347.786 37L332.706 55.92L329.346 55.96L314.226 37ZM375.75 49.8L375.75 54.2L354.79 54.2L354.79 49.8L375.75 49.8ZM358.27 52L356.15 65.4L353.63 62.44L376.91 62.44L376.91 67L350.75 67L353.15 52L350.75 37L376.71 37L376.71 41.56L353.63 41.56L356.15 38.6L358.27 52ZM386.095 50.52L398.295 50.52C400.055 50.52 401.441 50.12 402.455 49.32C403.495 48.52 404.015 47.4267 404.015 46.04C404.015 44.6267 403.495 43.5334 402.455 42.76C401.441 41.96 400.055 41.56 398.295 41.56L385.335 41.56L387.695 38.6L387.695 67L382.415 67L382.415 37L398.775 37C400.881 37 402.721 37.3867 404.295 38.16C405.895 38.9067 407.135 39.96 408.015 41.32C408.921 42.6534 409.375 44.2267 409.375 46.04C409.375 47.8 408.921 49.36 408.015 50.72C407.135 52.0534 405.895 53.1067 404.295 53.88C402.721 54.6267 400.881 55 398.775 55L386.095 55L386.095 50.52ZM392.015 52.96L398.215 52.96L410.135 67L403.815 67L392.015 52.96ZM430.703 61.24L430.703 54.56L451.383 54.56L451.383 61.24L430.703 61.24ZM446.663 37L460.303 67L451.463 67L440.023 40.52L442.423 40.52L430.943 67L422.103 67L435.743 37L446.663 37Z" fill="white"/>
</svg>
