<svg width="383" height="89" viewBox="0 0 383 89" fill="none" xmlns="http://www.w3.org/2000/svg">
<rect width="383" height="89" fill="black"/>
<path d="M134.671 43.64H143.821C145.141 43.64 146.181 43.34 146.941 42.74C147.721 42.14 148.111 41.32 148.111 40.28C148.111 39.22 147.721 38.4 146.941 37.82C146.181 37.22 145.141 36.92 143.821 36.92H134.101L135.871 34.7V56H131.911V33.5H144.181C145.761 33.5 147.141 33.79 148.321 34.37C149.521 34.93 150.451 35.72 151.111 36.74C151.791 37.74 152.131 38.92 152.131 40.28C152.131 41.6 151.791 42.77 151.111 43.79C150.451 44.79 149.521 45.58 148.321 46.16C147.141 46.72 145.761 47 144.181 47H134.671V43.64ZM139.111 45.47H143.761L152.701 56H147.961L139.111 45.47ZM174.197 43.1V46.4H158.477V43.1H174.197ZM161.087 44.75L159.497 54.8L157.607 52.58H175.067V56H155.447L157.247 44.75L155.447 33.5H174.917V36.92H157.607L159.497 34.7L161.087 44.75ZM181.756 50.84V47.57H197.476V50.84H181.756ZM192.196 33.5L202.996 56H198.766L188.956 35H190.486L180.676 56H176.446L187.246 33.5H192.196ZM215.909 33.5C218.469 33.5 220.709 33.97 222.629 34.91C224.569 35.85 226.079 37.17 227.159 38.87C228.239 40.55 228.779 42.51 228.779 44.75C228.779 46.99 228.239 48.96 227.159 50.66C226.079 52.34 224.569 53.65 222.629 54.59C220.709 55.53 218.469 56 215.909 56H205.739V33.5H215.909ZM209.699 54.62L207.509 52.52H216.179C217.899 52.52 219.399 52.2 220.679 51.56C221.979 50.9 222.979 49.99 223.679 48.83C224.399 47.65 224.759 46.29 224.759 44.75C224.759 43.19 224.399 41.83 223.679 40.67C222.979 39.51 221.979 38.61 220.679 37.97C219.399 37.31 217.899 36.98 216.179 36.98H207.509L209.699 34.88V54.62ZM238.577 56V45.26H242.537V56H238.577ZM227.957 33.5H232.427L241.607 45.02H239.477L248.657 33.5H253.127L241.817 47.69L239.297 47.72L227.957 33.5Z" fill="white"/>
</svg>
