<svg width="383" height="89" viewBox="0 0 383 89" fill="none" xmlns="http://www.w3.org/2000/svg">
<rect width="383" height="89" fill="black"/>
<path d="M114.734 43.64H123.884C125.204 43.64 126.244 43.34 127.004 42.74C127.784 42.14 128.174 41.32 128.174 40.28C128.174 39.22 127.784 38.4 127.004 37.82C126.244 37.22 125.204 36.92 123.884 36.92H114.164L115.934 34.7V56H111.974V33.5H124.244C125.824 33.5 127.204 33.79 128.384 34.37C129.584 34.93 130.514 35.72 131.174 36.74C131.854 37.74 132.194 38.92 132.194 40.28C132.194 41.6 131.854 42.77 131.174 43.79C130.514 44.79 129.584 45.58 128.384 46.16C127.204 46.72 125.824 47 124.244 47H114.734V43.64ZM119.174 45.47H123.824L132.764 56H128.024L119.174 45.47ZM154.261 43.1V46.4H138.541V43.1H154.261ZM141.151 44.75L139.561 54.8L137.671 52.58H155.131V56H135.511L137.311 44.75L135.511 33.5H154.981V36.92H137.671L139.561 34.7L141.151 44.75ZM157.879 48.68H161.899C162.019 49.58 162.389 50.37 163.009 51.05C163.649 51.73 164.489 52.26 165.529 52.64C166.569 53 167.769 53.18 169.129 53.18C171.149 53.18 172.749 52.87 173.929 52.25C175.109 51.61 175.699 50.75 175.699 49.67C175.699 48.79 175.359 48.13 174.679 47.69C173.999 47.25 172.769 46.92 170.989 46.7L166.129 46.07C163.409 45.71 161.429 45.04 160.189 44.06C158.969 43.06 158.359 41.65 158.359 39.83C158.359 38.45 158.769 37.26 159.589 36.26C160.429 35.24 161.609 34.46 163.129 33.92C164.649 33.36 166.429 33.08 168.469 33.08C170.489 33.08 172.279 33.38 173.839 33.98C175.399 34.58 176.639 35.42 177.559 36.5C178.499 37.56 179.009 38.81 179.089 40.25H175.069C174.969 39.45 174.629 38.76 174.049 38.18C173.489 37.6 172.729 37.15 171.769 36.83C170.809 36.49 169.679 36.32 168.379 36.32C166.539 36.32 165.069 36.62 163.969 37.22C162.869 37.82 162.319 38.64 162.319 39.68C162.319 40.48 162.639 41.1 163.279 41.54C163.939 41.96 165.079 42.28 166.699 42.5L171.619 43.19C173.639 43.47 175.229 43.85 176.389 44.33C177.569 44.79 178.409 45.42 178.909 46.22C179.409 47 179.659 48.01 179.659 49.25C179.659 50.69 179.219 51.95 178.339 53.03C177.459 54.11 176.219 54.95 174.619 55.55C173.039 56.13 171.189 56.42 169.069 56.42C166.909 56.42 164.999 56.1 163.339 55.46C161.699 54.8 160.399 53.89 159.439 52.73C158.479 51.57 157.959 50.22 157.879 48.68ZM189.693 35.33H193.653V56H189.693V35.33ZM180.393 33.5H202.953V36.98H180.393V33.5ZM205.033 50.84V47.57H220.753V50.84H205.033ZM215.473 33.5L226.273 56H222.043L212.233 35H213.763L203.953 56H199.723L210.523 33.5H215.473ZM231.775 43.64H240.925C242.245 43.64 243.285 43.34 244.045 42.74C244.825 42.14 245.215 41.32 245.215 40.28C245.215 39.22 244.825 38.4 244.045 37.82C243.285 37.22 242.245 36.92 240.925 36.92H231.205L232.975 34.7V56H229.015V33.5H241.285C242.865 33.5 244.245 33.79 245.425 34.37C246.625 34.93 247.555 35.72 248.215 36.74C248.895 37.74 249.235 38.92 249.235 40.28C249.235 41.6 248.895 42.77 248.215 43.79C247.555 44.79 246.625 45.58 245.425 46.16C244.245 46.72 242.865 47 241.285 47H231.775V43.64ZM236.215 45.47H240.865L249.805 56H245.065L236.215 45.47ZM259.801 35.33H263.761V56H259.801V35.33ZM250.501 33.5H273.061V36.98H250.501V33.5Z" fill="white"/>
</svg>
