<svg width="313" height="313" viewBox="0 0 313 313" fill="none" xmlns="http://www.w3.org/2000/svg">
<rect x="313" width="313" height="313" transform="rotate(90 313 0)" fill="#FF8C4E"/>
<path d="M161 205.333C187.694 205.333 209.333 183.694 209.333 157C209.333 130.306 187.694 108.667 161 108.667C134.306 108.667 112.667 130.306 112.667 157C112.667 183.694 134.306 205.333 161 205.333Z" fill="white"/>
<path d="M267.333 147.333H257.174C252.63 101.736 216.264 65.3697 170.667 60.8263V50.6667C170.667 48.1029 169.648 45.6442 167.835 43.8313C166.023 42.0184 163.564 41 161 41C158.436 41 155.977 42.0184 154.165 43.8313C152.352 45.6442 151.333 48.1029 151.333 50.6667V60.8263C105.736 65.3697 69.3697 101.736 64.8263 147.333H54.6667C52.1029 147.333 49.6442 148.352 47.8313 150.165C46.0184 151.977 45 154.436 45 157C45 159.564 46.0184 162.023 47.8313 163.835C49.6442 165.648 52.1029 166.667 54.6667 166.667H64.8263C69.3793 212.264 105.736 248.63 151.333 253.174V263.333C151.333 265.897 152.352 268.356 154.165 270.169C155.977 271.982 158.436 273 161 273C163.564 273 166.023 271.982 167.835 270.169C169.648 268.356 170.667 265.897 170.667 263.333V253.174C216.264 248.621 252.63 212.264 257.174 166.667H267.333C269.897 166.667 272.356 165.648 274.169 163.835C275.982 162.023 277 159.564 277 157C277 154.436 275.982 151.977 274.169 150.165C272.356 148.352 269.897 147.333 267.333 147.333ZM170.531 233.686C170.183 228.669 166.114 224.667 161 224.667C155.886 224.667 151.817 228.669 151.469 233.686C134.409 231.542 118.548 223.778 106.39 211.62C94.2319 199.461 86.4682 183.601 84.324 166.541C89.341 166.183 93.3333 162.104 93.3333 157C93.3333 151.896 89.341 147.817 84.3143 147.469C86.4585 130.409 94.2222 114.548 106.38 102.39C118.539 90.2319 134.399 82.4682 151.459 80.324C151.817 85.3313 155.886 89.3333 161 89.3333C166.114 89.3333 170.183 85.3313 170.531 80.3143C187.591 82.4585 203.452 90.2222 215.61 102.38C227.768 114.539 235.532 130.399 237.676 147.459C232.659 147.817 228.667 151.896 228.667 157C228.667 162.104 232.659 166.183 237.686 166.531C235.538 183.593 227.772 199.454 215.613 211.613C203.454 223.772 187.593 231.538 170.531 233.686Z" fill="white"/>
</svg>
